# File created by Blade
# Date/Time:  Wed Sep 24 20:26:02 2014
# Frame Rate: 120.000 fps
#------------------------------------------------------
:FULLY-SPECIFIED
:DEGREES
1191
root -5.849429 32.683006 -1.326010 367.062081 -67.391044 -359.814061
Spine -10.139290 13.272403 1.221894
Head 2.494608 48.780987 10.241367
LeftShoulder -15.308153 20.951979 5.818908
LeftArm 20.879444 20.491913 -74.692157
LeftForeArm 5.069043 -0.000000 23.970014
LeftHand -28.617244 -0.000000 10.095583
LeftHandThumb1 -26.253704 0.000000 33.147579
RightShoulder -19.220178 10.639941 -25.565150
RightArm -17.789023 -32.891034 99.371509
RightForeArm -24.572203 -0.000000 23.121129
RightHand -5.913808 -0.000000 13.426249
RightHandThumb1 -24.326973 -0.000000 -32.862282
LeftUpLeg -4.788912 -3.437853 -1.188268
LeftLeg -4.612010 -0.000000 0.000000
LeftFoot -4.679151 1.514556 -20.853045
LeftToeBase 5.946559 -0.000000 -0.000000
RightUpLeg -7.517984 -8.322532 -2.938349
RightLeg 24.112516 -0.000000 -0.000000
RightFoot -20.199552 -16.413530 -2.455771
RightToeBase -1.125335 -0.000000 0.000000
1192
root -5.847500 32.697412 -1.340271 367.771830 -67.757147 -360.392816
Spine -10.260205 13.432324 1.473522
Head 2.490450 48.914860 10.002710
LeftShoulder -15.292574 20.937553 5.755443
LeftArm 20.810706 20.260770 -74.782419
LeftForeArm 4.886483 -0.000000 23.844674
LeftHand -28.581897 -0.000000 9.977231
LeftHandThumb1 -26.253704 0.000000 33.147579
RightShoulder -19.136104 10.615036 -25.576725
RightArm -17.728700 -32.820621 99.327711
RightForeArm -24.504125 0.000000 23.004930
RightHand -5.929530 -0.000000 13.570986
RightHandThumb1 -24.326973 -0.000000 -32.862282
LeftUpLeg -4.937245 -3.292116 -0.952555
LeftLeg -4.639138 -0.000000 0.000000
LeftFoot -4.726992 1.732279 -20.973839
LeftToeBase 5.859106 -0.000000 -0.000000
RightUpLeg -7.523965 -8.192074 -2.657718
RightLeg 22.835152 -0.000000 -0.000000
RightFoot -20.380409 -14.886246 -2.428116
RightToeBase -1.650137 -0.000000 0.000000
1193
root -5.846542 32.712070 -1.356538 368.545445 -68.136613 -361.051954
Spine -10.359885 13.588814 1.754906
Head 2.474810 49.066414 9.785634
LeftShoulder -15.237513 20.770755 5.767501
LeftArm 20.589120 20.284126 -74.868454
LeftForeArm 4.359761 -0.000000 23.699070
LeftHand -28.642947 -0.000000 10.298647
LeftHandThumb1 -26.253704 0.000000 33.147579
RightShoulder -19.098276 10.653239 -25.641933
RightArm -17.730161 -32.821273 99.343929
RightForeArm -24.218495 -0.000000 22.800701
RightHand -5.788867 -0.000000 13.545973
RightHandThumb1 -24.326973 -0.000000 -32.862282
LeftUpLeg -5.200537 -2.542970 -0.767548
LeftLeg -4.387344 -0.000000 0.000000
LeftFoot -4.746618 1.342269 -20.882797
LeftToeBase 5.806015 -0.000000 -0.000000
RightUpLeg -7.487719 -7.954637 -2.357267
RightLeg 21.457783 -0.000000 -0.000000
RightFoot -20.532651 -13.466571 -2.167757
RightToeBase -1.954185 -0.000000 0.000000
1194
root -5.846508 32.725677 -1.373569 369.222390 -68.484585 -361.610342
Spine -10.436592 13.715123 1.996378
Head 2.352267 49.203307 9.459286
LeftShoulder -15.232295 20.683159 5.754042
LeftArm 20.529692 20.326343 -74.879162
LeftForeArm 4.072928 -0.000000 23.495688
LeftHand -28.796156 -0.000000 10.433464
LeftHandThumb1 -26.253704 0.000000 33.147579
RightShoulder -19.029282 10.708344 -25.732589
RightArm -17.738515 -32.585250 99.331719
RightForeArm -24.023431 -0.000000 22.599482
RightHand -5.739685 -0.000000 13.652699
RightHandThumb1 -24.326973 -0.000000 -32.862282
LeftUpLeg -5.327563 -2.390777 -0.557674
LeftLeg -4.417655 -0.000000 0.000000
LeftFoot -4.801495 1.566980 -20.892835
LeftToeBase 5.801850 -0.000000 -0.000000
RightUpLeg -7.410770 -7.683200 -2.107655
RightLeg 19.964708 -0.000000 -0.000000
RightFoot -20.536179 -12.238743 -2.068106
RightToeBase -2.472517 -0.000000 0.000000
